# xmcd CD database file
#
# Track frame offsets:
#	150
#	5222
#	22559
#	39656
#	58795
#	77281
#	97333
#	117884
#	135769
#	155803
#	176745
#	191826
#
# Disc length: 2823 seconds
#
# Revision: 1
# Processed by: cddbd v1.5.2PL0 Copyright (c) Steve Scherf et al.
# Submitted via: CDex 1.70beta2
#
DISCID=970b050c
DTITLE=Lahannya - Defiance
DYEAR=2009
DGENRE=Alternative
TTITLE0=Prelude
TTITLE1=Dying Inside
TTITLE2=Sick And Tired
TTITLE3=Brave New World
TTITLE4=Burn
TTITLE5=Adrenaline
TTITLE6=Open Your Eyes
TTITLE7=Interference
TTITLE8=Piece By Piece
TTITLE9=Kill Me If You Care
TTITLE10=No Way Out
TTITLE11=Our War
EXTD=YEAR: 2009
EXTT0=
EXTT1=
EXTT2=
EXTT3=
EXTT4=
EXTT5=
EXTT6=
EXTT7=
EXTT8=
EXTT9=
EXTT10=
EXTT11=
PLAYORDER=
